<svg id="visual" viewBox="0 0 900 600" width="900" height="600" xmlns="http://www.w3.org/2000/svg" xmlns:xlink="http://www.w3.org/1999/xlink" version="1.1"><rect x="0" y="0" width="900" height="600" fill="#272626"></rect><path d="M0 393L21.5 393.3C43 393.7 86 394.3 128.8 397.7C171.7 401 214.3 407 257.2 400.7C300 394.3 343 375.7 385.8 377C428.7 378.3 471.3 399.7 514.2 408.2C557 416.7 600 412.3 642.8 401.5C685.7 390.7 728.3 373.3 771.2 373.7C814 374 857 392 878.5 401L900 410L900 601L878.5 601C857 601 814 601 771.2 601C728.3 601 685.7 601 642.8 601C600 601 557 601 514.2 601C471.3 601 428.7 601 385.8 601C343 601 300 601 257.2 601C214.3 601 171.7 601 128.8 601C86 601 43 601 21.5 601L0 601Z" fill="#ffffff"></path><path d="M0 396L21.5 407.5C43 419 86 442 128.8 453C171.7 464 214.3 463 257.2 458.2C300 453.3 343 444.7 385.8 436C428.7 427.3 471.3 418.7 514.2 422.8C557 427 600 444 642.8 453.5C685.7 463 728.3 465 771.2 466.5C814 468 857 469 878.5 469.5L900 470L900 601L878.5 601C857 601 814 601 771.2 601C728.3 601 685.7 601 642.8 601C600 601 557 601 514.2 601C471.3 601 428.7 601 385.8 601C343 601 300 601 257.2 601C214.3 601 171.7 601 128.8 601C86 601 43 601 21.5 601L0 601Z" fill="#f7cdd7"></path><path d="M0 437L21.5 448.7C43 460.3 86 483.7 128.8 492.8C171.7 502 214.3 497 257.2 492.2C300 487.3 343 482.7 385.8 484C428.7 485.3 471.3 492.7 514.2 498C557 503.3 600 506.7 642.8 501.3C685.7 496 728.3 482 771.2 482C814 482 857 496 878.5 503L900 510L900 601L878.5 601C857 601 814 601 771.2 601C728.3 601 685.7 601 642.8 601C600 601 557 601 514.2 601C471.3 601 428.7 601 385.8 601C343 601 300 601 257.2 601C214.3 601 171.7 601 128.8 601C86 601 43 601 21.5 601L0 601Z" fill="#ea9bb0"></path><path d="M0 498L21.5 504C43 510 86 522 128.8 527C171.7 532 214.3 530 257.2 527.3C300 524.7 343 521.3 385.8 516.5C428.7 511.7 471.3 505.3 514.2 499.7C557 494 600 489 642.8 495.3C685.7 501.7 728.3 519.3 771.2 528.2C814 537 857 537 878.5 537L900 537L900 601L878.5 601C857 601 814 601 771.2 601C728.3 601 685.7 601 642.8 601C600 601 557 601 514.2 601C471.3 601 428.7 601 385.8 601C343 601 300 601 257.2 601C214.3 601 171.7 601 128.8 601C86 601 43 601 21.5 601L0 601Z" fill="#da678b"></path><path d="M0 561L21.5 557.5C43 554 86 547 128.8 548C171.7 549 214.3 558 257.2 557C300 556 343 545 385.8 542.2C428.7 539.3 471.3 544.7 514.2 543.3C557 542 600 534 642.8 530.2C685.7 526.3 728.3 526.7 771.2 528.7C814 530.7 857 534.3 878.5 536.2L900 538L900 601L878.5 601C857 601 814 601 771.2 601C728.3 601 685.7 601 642.8 601C600 601 557 601 514.2 601C471.3 601 428.7 601 385.8 601C343 601 300 601 257.2 601C214.3 601 171.7 601 128.8 601C86 601 43 601 21.5 601L0 601Z" fill="#c62368"></path></svg>